<svg aria-hidden="true" style="position: absolute; width: 0; height: 0; overflow: hidden;" version="1.1" xmlns="http://www.w3.org/2000/svg" xmlns:xlink="http://www.w3.org/1999/xlink">
<defs>
<symbol id="icon-cancel" viewBox="0 0 32 32">
<title>cancel</title>
<path d="M16 29c-7.18 0-13-5.82-13-13s5.82-13 13-13 13 5.82 13 13-5.82 13-13 13zM21.961 12.209c0.244-0.244 0.244-0.641 0-0.885l-1.328-1.327c-0.244-0.244-0.641-0.244-0.885 0l-3.761 3.761-3.761-3.761c-0.244-0.244-0.641-0.244-0.885 0l-1.328 1.327c-0.244 0.244-0.244 0.641 0 0.885l3.762 3.762-3.762 3.76c-0.244 0.244-0.244 0.641 0 0.885l1.328 1.328c0.244 0.244 0.641 0.244 0.885 0l3.761-3.762 3.761 3.762c0.244 0.244 0.641 0.244 0.885 0l1.328-1.328c0.244-0.244 0.244-0.641 0-0.885l-3.762-3.76 3.762-3.762z"></path>
</symbol>
<symbol id="icon-x-altx-alt" viewBox="0 0 32 32">
<title>x-altx-alt</title>
<path d="M16 0c-8.836 0-16 7.164-16 16s7.164 16 16 16 16-7.164 16-16-7.164-16-16-16zM23.914 21.086l-2.828 2.828-5.086-5.086-5.086 5.086-2.828-2.828 5.086-5.086-5.086-5.086 2.828-2.828 5.086 5.086 5.086-5.086 2.828 2.828-5.086 5.086 5.086 5.086z"></path>
</symbol>
<symbol id="icon-check-alt" viewBox="0 0 32 32">
<title>check-alt</title>
<path d="M16 0c-8.836 0-16 7.164-16 16s7.164 16 16 16 16-7.164 16-16-7.164-16-16-16zM13.52 23.383l-7.362-7.363 2.828-2.828 4.533 4.535 9.617-9.617 2.828 2.828-12.444 12.445z"></path>
</symbol>
<symbol id="icon-forward" viewBox="0 0 32 32">
<title>forward</title>
<path d="M22.314 16l-8.485 8.485-2.829-2.828 5.657-5.657-5.657-5.657 2.828-2.828 8.486 8.485z"></path>
</symbol>
<symbol id="icon-cogs" viewBox="0 0 32 32">
<title>cogs</title>
<path d="M11.366 22.564l1.291-1.807-1.414-1.414-1.807 1.291c-0.335-0.187-0.694-0.337-1.071-0.444l-0.365-2.19h-2l-0.365 2.19c-0.377 0.107-0.736 0.256-1.071 0.444l-1.807-1.291-1.414 1.414 1.291 1.807c-0.187 0.335-0.337 0.694-0.443 1.071l-2.19 0.365v2l2.19 0.365c0.107 0.377 0.256 0.736 0.444 1.071l-1.291 1.807 1.414 1.414 1.807-1.291c0.335 0.187 0.694 0.337 1.071 0.444l0.365 2.19h2l0.365-2.19c0.377-0.107 0.736-0.256 1.071-0.444l1.807 1.291 1.414-1.414-1.291-1.807c0.187-0.335 0.337-0.694 0.444-1.071l2.19-0.365v-2l-2.19-0.365c-0.107-0.377-0.256-0.736-0.444-1.071zM7 27c-1.105 0-2-0.895-2-2s0.895-2 2-2 2 0.895 2 2-0.895 2-2 2zM32 12v-2l-2.106-0.383c-0.039-0.251-0.088-0.499-0.148-0.743l1.799-1.159-0.765-1.848-2.092 0.452c-0.132-0.216-0.273-0.426-0.422-0.629l1.219-1.761-1.414-1.414-1.761 1.219c-0.203-0.149-0.413-0.29-0.629-0.422l0.452-2.092-1.848-0.765-1.159 1.799c-0.244-0.059-0.492-0.109-0.743-0.148l-0.383-2.106h-2l-0.383 2.106c-0.251 0.039-0.499 0.088-0.743 0.148l-1.159-1.799-1.848 0.765 0.452 2.092c-0.216 0.132-0.426 0.273-0.629 0.422l-1.761-1.219-1.414 1.414 1.219 1.761c-0.149 0.203-0.29 0.413-0.422 0.629l-2.092-0.452-0.765 1.848 1.799 1.159c-0.059 0.244-0.109 0.492-0.148 0.743l-2.106 0.383v2l2.106 0.383c0.039 0.251 0.088 0.499 0.148 0.743l-1.799 1.159 0.765 1.848 2.092-0.452c0.132 0.216 0.273 0.426 0.422 0.629l-1.219 1.761 1.414 1.414 1.761-1.219c0.203 0.149 0.413 0.29 0.629 0.422l-0.452 2.092 1.848 0.765 1.159-1.799c0.244 0.059 0.492 0.109 0.743 0.148l0.383 2.106h2l0.383-2.106c0.251-0.039 0.499-0.088 0.743-0.148l1.159 1.799 1.848-0.765-0.452-2.092c0.216-0.132 0.426-0.273 0.629-0.422l1.761 1.219 1.414-1.414-1.219-1.761c0.149-0.203 0.29-0.413 0.422-0.629l2.092 0.452 0.765-1.848-1.799-1.159c0.059-0.244 0.109-0.492 0.148-0.743l2.106-0.383zM21 15.35c-2.402 0-4.35-1.948-4.35-4.35s1.948-4.35 4.35-4.35 4.35 1.948 4.35 4.35c0 2.402-1.948 4.35-4.35 4.35z"></path>
</symbol>
<symbol id="icon-hammer" viewBox="0 0 32 32">
<!-- <title>hammer</title> -->
<path d="M31.562 25.905l-9.423-9.423c-0.583-0.583-1.538-0.583-2.121 0l-0.707 0.707-5.75-5.75 9.439-9.439h-10l-4.439 4.439-0.439-0.439h-2.121v2.121l0.439 0.439-6.439 6.439 5 5 6.439-6.439 5.75 5.75-0.707 0.707c-0.583 0.583-0.583 1.538 0 2.121l9.423 9.423c0.583 0.583 1.538 0.583 2.121 0l3.535-3.535c0.583-0.583 0.583-1.538 0-2.121z"></path>
</symbol>
<symbol id="icon-checkmark" viewBox="0 0 32 32">
<title>checkmark</title>
<path d="M27 4l-15 15-7-7-5 5 12 12 20-20z"></path>
</symbol>
<symbol id="icon-check-circle" viewBox="0 0 24 28">
<title>check-circle</title>
<path d="M20.062 11.469c0-0.266-0.094-0.531-0.281-0.719l-1.422-1.406c-0.187-0.187-0.438-0.297-0.703-0.297s-0.516 0.109-0.703 0.297l-6.375 6.359-3.531-3.531c-0.187-0.187-0.438-0.297-0.703-0.297s-0.516 0.109-0.703 0.297l-1.422 1.406c-0.187 0.187-0.281 0.453-0.281 0.719s0.094 0.516 0.281 0.703l5.656 5.656c0.187 0.187 0.453 0.297 0.703 0.297 0.266 0 0.531-0.109 0.719-0.297l8.484-8.484c0.187-0.187 0.281-0.438 0.281-0.703zM24 14c0 6.625-5.375 12-12 12s-12-5.375-12-12 5.375-12 12-12 12 5.375 12 12z"></path>
</symbol>
<symbol id="icon-build" viewBox="0 0 28 28">
<title>build</title>
<path d="M26.469 22.148q0.383 0.219 0.355 0.738t-0.465 0.902l-2.68 2.68q-0.82 0.82-1.641 0l-10.609-10.609q-1.969 0.82-4.184 0.355t-3.855-2.105q-1.75-1.75-2.188-4.156t0.656-4.484l5.141 5.031 3.5-3.5-5.031-5.031q2.078-0.984 4.484-0.602t4.156 2.133q1.641 1.641 2.105 3.855t-0.355 4.184z"></path>
</symbol>
<symbol id="icon-cancel1" viewBox="0 0 24 24">
<title>cancel1</title>
<path d="M17.016 15.609l-3.609-3.609 3.609-3.609-1.406-1.406-3.609 3.609-3.609-3.609-1.406 1.406 3.609 3.609-3.609 3.609 1.406 1.406 3.609-3.609 3.609 3.609zM12 2.016q4.125 0 7.055 2.93t2.93 7.055-2.93 7.055-7.055 2.93-7.055-2.93-2.93-7.055 2.93-7.055 7.055-2.93z"></path>
</symbol>
<symbol id="icon-build" viewBox="0 0 24 24">
<title>build</title>
<path d="M22.688 18.984q0.328 0.188 0.305 0.633t-0.398 0.773l-2.297 2.297q-0.703 0.703-1.406 0l-9.094-9.094q-1.688 0.703-3.586 0.305t-3.305-1.805q-1.5-1.5-1.875-3.563t0.563-3.844l4.406 4.313 3-3-4.313-4.313q1.781-0.844 3.844-0.516t3.563 1.828q1.406 1.406 1.805 3.305t-0.305 3.586z"></path>
</symbol>

<symbol id="icon-refresh" viewBox="0 0 24 28">
<title>refresh</title>
<path d="M23.609 16.5c0 0.031 0 0.078-0.016 0.109-1.328 5.531-5.891 9.391-11.656 9.391-3.047 0-6-1.203-8.219-3.313l-2.016 2.016c-0.187 0.187-0.438 0.297-0.703 0.297-0.547 0-1-0.453-1-1v-7c0-0.547 0.453-1 1-1h7c0.547 0 1 0.453 1 1 0 0.266-0.109 0.516-0.297 0.703l-2.141 2.141c1.469 1.375 3.422 2.156 5.437 2.156 2.781 0 5.359-1.437 6.813-3.813 0.375-0.609 0.562-1.203 0.828-1.828 0.078-0.219 0.234-0.359 0.469-0.359h3c0.281 0 0.5 0.234 0.5 0.5zM24 4v7c0 0.547-0.453 1-1 1h-7c-0.547 0-1-0.453-1-1 0-0.266 0.109-0.516 0.297-0.703l2.156-2.156c-1.484-1.375-3.437-2.141-5.453-2.141-2.781 0-5.359 1.437-6.813 3.813-0.375 0.609-0.562 1.203-0.828 1.828-0.078 0.219-0.234 0.359-0.469 0.359h-3.109c-0.281 0-0.5-0.234-0.5-0.5v-0.109c1.344-5.547 5.953-9.391 11.719-9.391 3.063 0 6.047 1.219 8.266 3.313l2.031-2.016c0.187-0.187 0.438-0.297 0.703-0.297 0.547 0 1 0.453 1 1z"></path>
</symbol>
<symbol id="icon-loop2" viewBox="0 0 32 32">
<title>loop2</title>
<path d="M27.802 5.197c-2.925-3.194-7.13-5.197-11.803-5.197-8.837 0-16 7.163-16 16h3c0-7.18 5.82-13 13-13 3.844 0 7.298 1.669 9.678 4.322l-4.678 4.678h11v-11l-4.198 4.197z"></path>
<path d="M29 16c0 7.18-5.82 13-13 13-3.844 0-7.298-1.669-9.678-4.322l4.678-4.678h-11v11l4.197-4.197c2.925 3.194 7.13 5.197 11.803 5.197 8.837 0 16-7.163 16-16h-3z"></path>
</symbol>

<symbol id="icon-launch" viewBox="0 0 32 32">
<title>launch</title>
<path d="M24 24h-6v4h-4v-4h-6l4-4v-13l4-4 4 4v13l4 4z"></path>
</symbol>

<symbol id="icon-directions_run" viewBox="0 0 24 24">
<!-- <title>directions_run</title> -->
<path d="M9.891 19.359l-6.984-1.359 0.375-2.016 4.922 0.984 1.594-8.109-1.828 0.703v3.422h-1.969v-4.688l5.203-2.203q0.141 0 0.398-0.047t0.398-0.047q0.984 0 1.688 0.984l0.984 1.594q1.359 2.391 4.313 2.391v2.016q-3.328 0-5.484-2.484l-0.609 3 2.109 1.969v7.5h-2.016v-6l-2.109-1.969zM13.5 5.484q-0.797 0-1.406-0.609t-0.609-1.406 0.609-1.383 1.406-0.586 1.383 0.586 0.586 1.383-0.586 1.406-1.383 0.609z"></path>
</symbol>

<symbol id="icon-plus11" viewBox="0 0 22 28">
<!-- <title>plus11</title> -->
<path d="M22 11.5v3c0 0.828-0.672 1.5-1.5 1.5h-6.5v6.5c0 0.828-0.672 1.5-1.5 1.5h-3c-0.828 0-1.5-0.672-1.5-1.5v-6.5h-6.5c-0.828 0-1.5-0.672-1.5-1.5v-3c0-0.828 0.672-1.5 1.5-1.5h6.5v-6.5c0-0.828 0.672-1.5 1.5-1.5h3c0.828 0 1.5 0.672 1.5 1.5v6.5h6.5c0.828 0 1.5 0.672 1.5 1.5z"></path>
</symbol>

<symbol id="icon-plus" viewBox="0 0 24 24">
<!-- <title>plus</title> -->
<path d="M23.25 9h-8.25v-8.25c0-0.414-0.336-0.75-0.75-0.75h-4.5c-0.414 0-0.75 0.336-0.75 0.75v8.25h-8.25c-0.414 0-0.75 0.336-0.75 0.75v4.5c0 0.414 0.336 0.75 0.75 0.75h8.25v8.25c0 0.414 0.336 0.75 0.75 0.75h4.5c0.414 0 0.75-0.336 0.75-0.75v-8.25h8.25c0.414 0 0.75-0.336 0.75-0.75v-4.5c0-0.414-0.336-0.75-0.75-0.75z"></path>
</symbol>

<symbol id="icon-plus1" viewBox="0 0 32 32">
<title>plus1</title>
<path d="M31 12h-11v-11c0-0.552-0.448-1-1-1h-6c-0.552 0-1 0.448-1 1v11h-11c-0.552 0-1 0.448-1 1v6c0 0.552 0.448 1 1 1h11v11c0 0.552 0.448 1 1 1h6c0.552 0 1-0.448 1-1v-11h11c0.552 0 1-0.448 1-1v-6c0-0.552-0.448-1-1-1z"></path>
</symbol>

<symbol id="icon-rocket" viewBox="0 0 32 32">
<!-- <title>rocket</title> -->
<path d="M23.371 29.529c0 0 0.335-2.012-1.731-4.469 2.011-5.641 2.29-10.778 2.29-10.778s4.133 0.95 4.133 5.026c-0.001 6.981-4.692 10.221-4.692 10.221zM11.979 27.078c0 0-2.768-8.883-2.768-12.568 0-1.658 0.187-3.133 0.478-4.472h12.61c0.293 1.34 0.481 2.816 0.481 4.473 0 3.629-2.76 12.567-2.76 12.567h-8.041zM15.99 12.069c-1.418 0-2.568 1.15-2.568 2.569 0 1.418 1.15 2.569 2.568 2.569s2.569-1.15 2.569-2.569c0.001-1.419-1.15-2.569-2.569-2.569zM15.438 0.596v-3.498h1v3.409c1.143 0.832 4.236 3.478 5.635 8.575h-12.16c1.352-4.957 4.296-7.574 5.525-8.486zM8.629 29.529c0 0-4.691-3.24-4.691-10.221 0-4.076 4.133-5.026 4.133-5.026s0.279 5.137 2.289 10.778c-2.067 2.458-1.731 4.469-1.731 4.469zM17.691 30.045l-0.838-0.838-0.893 2.793-1.062-2.793-0.726 1.451-1.062-2.625h5.752l-1.171 2.012z"></path>
</symbol>

<symbol id="icon-rocket1" viewBox="0 0 32 32">
<!-- <title>rocket1</title> -->
<path d="M22 2l-10 10h-6l-6 8c0 0 6.357-1.77 10.065-0.94l-10.065 12.94 13.184-10.255c1.839 4.208-1.184 10.255-1.184 10.255l8-6v-6l10-10 2-10-10 2z"></path>
</symbol>

<symbol id="icon-rocket11" viewBox="0 0 26 28">
<!-- <title>rocket11</title> -->
<path d="M22.5 7c0-0.828-0.672-1.5-1.5-1.5s-1.5 0.672-1.5 1.5 0.672 1.5 1.5 1.5 1.5-0.672 1.5-1.5zM26 2.5c0 5.187-1.437 8.641-5.141 12.359-0.906 0.891-1.937 1.813-3.047 2.75l-0.313 5.922c-0.016 0.156-0.109 0.313-0.25 0.406l-6 3.5c-0.078 0.047-0.156 0.063-0.25 0.063-0.125 0-0.25-0.047-0.359-0.141l-1-1c-0.125-0.141-0.172-0.328-0.125-0.5l1.328-4.312-4.391-4.391-4.312 1.328c-0.047 0.016-0.094 0.016-0.141 0.016-0.125 0-0.266-0.047-0.359-0.141l-1-1c-0.156-0.172-0.187-0.422-0.078-0.609l3.5-6c0.094-0.141 0.25-0.234 0.406-0.25l5.922-0.313c0.938-1.109 1.859-2.141 2.75-3.047 3.906-3.891 6.891-5.141 12.328-5.141 0.281 0 0.531 0.219 0.531 0.5z"></path>
</symbol>

<symbol id="icon-home2" viewBox="0 0 32 32">
<title>home2</title>
<path d="M16 1l-16 16 3 3 3-3v13h8v-6h4v6h8v-13l3 3 3-3-16-16zM16 14c-1.105 0-2-0.895-2-2s0.895-2 2-2c1.105 0 2 0.895 2 2s-0.895 2-2 2z"></path>
</symbol>

<symbol id="icon-home3" viewBox="0 0 32 32">
<title>home3</title>
<path d="M32 19l-6-6v-9h-4v5l-6-6-16 16v1h4v10h10v-6h4v6h10v-10h4z"></path>
</symbol>

<symbol id="icon-check_circle" viewBox="0 0 24 24">
<path d="M9.984 17.016l9-9-1.406-1.453-7.594 7.594-3.563-3.563-1.406 1.406zM12 2.016q4.125 0 7.055 2.93t2.93 7.055-2.93 7.055-7.055 2.93-7.055-2.93-2.93-7.055 2.93-7.055 7.055-2.93z"></path>
</symbol>

<symbol id="icon-bullhorn" viewBox="0 0 32 32">
<path d="M32 13.414c0-6.279-1.837-11.373-4.109-11.413 0.009-0 0.018-0.001 0.027-0.001h-2.592c0 0-6.088 4.573-14.851 6.367-0.268 1.415-0.438 3.102-0.438 5.047s0.171 3.631 0.438 5.047c8.763 1.794 14.851 6.367 14.851 6.367h2.592c-0.009 0-0.018-0.001-0.027-0.001 2.272-0.040 4.109-5.134 4.109-11.413zM27.026 23.102c-0.293 0-0.61-0.304-0.773-0.486-0.395-0.439-0.775-1.124-1.1-1.979-0.727-1.913-1.127-4.478-1.127-7.223s0.4-5.309 1.127-7.223c0.325-0.855 0.705-1.54 1.1-1.979 0.163-0.182 0.48-0.486 0.773-0.486s0.61 0.304 0.773 0.486c0.395 0.439 0.775 1.124 1.1 1.979 0.727 1.913 1.127 4.479 1.127 7.223s-0.4 5.309-1.127 7.223c-0.325 0.855-0.705 1.54-1.1 1.979-0.163 0.181-0.48 0.486-0.773 0.486zM7.869 13.414c0-1.623 0.119-3.201 0.345-4.659-1.48 0.205-2.779 0.323-4.386 0.323-2.096 0-2.096 0-2.096 0l-1.733 2.959v2.755l1.733 2.959c0 0 0 0 2.096 0 1.606 0 2.905 0.118 4.386 0.323-0.226-1.458-0.345-3.036-0.345-4.659zM11.505 20.068l-4-0.766 2.558 10.048c0.132 0.52 0.648 0.782 1.146 0.583l3.705-1.483c0.498-0.199 0.698-0.749 0.444-1.221l-3.853-7.161zM27.026 17.148c-0.113 0-0.235-0.117-0.298-0.187-0.152-0.169-0.299-0.433-0.424-0.763-0.28-0.738-0.434-1.726-0.434-2.784s0.154-2.046 0.434-2.784c0.125-0.33 0.272-0.593 0.424-0.763 0.063-0.070 0.185-0.187 0.298-0.187s0.235 0.117 0.298 0.187c0.152 0.169 0.299 0.433 0.424 0.763 0.28 0.737 0.434 1.726 0.434 2.784s-0.154 2.046-0.434 2.784c-0.125 0.33-0.272 0.593-0.424 0.763-0.063 0.070-0.185 0.187-0.298 0.187z"></path>
</symbol>

<symbol id="icon-megaphone" viewBox="0 0 32 32">
<path d="M28.075 18.121v7.896c0 0.552-0.312 0.999-0.998 0.999-0.166 0-0.577-0.354-1.082-0.887v-21.194c0.505-0.533 0.916-0.887 1.082-0.887 0.748 0 0.998 0.447 0.998 0.998v8.096c1.353 0.038 2.613 1.135 2.613 2.489 0 1.355-1.26 2.452-2.613 2.49zM12.015 20.046c0.062 0 0-9.029 0-9.029 6.857 0 10.922-3.010 13.064-5.074v19.177c-2.142-2.063-6.207-5.074-13.064-5.074zM8.021 27.952l-1.997-7.927h-1.998c0 0-0.594-1.348-0.864-2.996-0.509 0-0.954 0-1.134 0-0.551 0-0.998-0.447-0.998-0.999v-0.998c0-0.552 0.447-0.999 0.998-0.999 0.18 0 0.625 0 1.134 0 0.271-1.648 0.864-2.995 0.864-2.995h6.99v8.987h-1.997l0.252 0.998h0.997l0.499 1.998h-0.994l1.243 4.931h-2.995z"></path>
</symbol>

<symbol id="icon-group" viewBox="0 0 24 24">
<path d="M12 14c1.381 0 2.631-0.56 3.536-1.465 0.904-0.904 1.464-2.154 1.464-3.535s-0.56-2.631-1.464-3.535c-0.905-0.905-2.155-1.465-3.536-1.465s-2.631 0.56-3.536 1.465c-0.904 0.904-1.464 2.154-1.464 3.535s0.56 2.631 1.464 3.535c0.905 0.905 2.155 1.465 3.536 1.465z"></path>
<path d="M20 15c0.69 0 1.315-0.279 1.768-0.731s0.732-1.077 0.732-1.769c0-0.69-0.279-1.315-0.732-1.768s-1.078-0.732-1.768-0.732c-0.691 0-1.316 0.279-1.769 0.732-0.452 0.453-0.731 1.078-0.731 1.768 0 0.691 0.279 1.316 0.731 1.769s1.078 0.731 1.769 0.731z"></path>
<path d="M20 15.59c-1.331 0-2.332 0.406-2.917 0.968-1.115-0.917-2.878-1.558-5.083-1.558-2.266 0-3.995 0.648-5.092 1.564-0.596-0.565-1.608-0.974-2.908-0.974-2.188 0-3.5 1.090-3.5 2.182 0 0.545 1.312 1.092 3.5 1.092 0.604 0 1.146-0.051 1.623-0.133-0.010 0.091-0.040 0.18-0.040 0.27 0 1 2.406 2 6.417 2 3.762 0 6.417-1 6.417-2 0-0.085-0.011-0.17-0.020-0.255 0.463 0.073 0.995 0.118 1.603 0.118 2.051 0 3.5-0.547 3.5-1.092 0-1.092-1.373-2.182-3.5-2.182z"></path>
<path d="M4 15c0.69 0 1.315-0.279 1.768-0.732s0.732-1.078 0.732-1.768c0-0.689-0.279-1.314-0.732-1.768-0.453-0.452-1.078-0.732-1.768-0.732-0.691 0-1.316 0.28-1.769 0.732-0.452 0.454-0.731 1.079-0.731 1.768s0.279 1.315 0.731 1.768c0.453 0.453 1.078 0.732 1.769 0.732z"></path>
</symbol>

<symbol id="icon-group1" viewBox="0 0 30 28">
<path d="M9.266 14c-1.625 0.047-3.094 0.75-4.141 2h-2.094c-1.563 0-3.031-0.75-3.031-2.484 0-1.266-0.047-5.516 1.937-5.516 0.328 0 1.953 1.328 4.062 1.328 0.719 0 1.406-0.125 2.078-0.359-0.047 0.344-0.078 0.688-0.078 1.031 0 1.422 0.453 2.828 1.266 4zM26 23.953c0 2.531-1.672 4.047-4.172 4.047h-13.656c-2.5 0-4.172-1.516-4.172-4.047 0-3.531 0.828-8.953 5.406-8.953 0.531 0 2.469 2.172 5.594 2.172s5.063-2.172 5.594-2.172c4.578 0 5.406 5.422 5.406 8.953zM10 4c0 2.203-1.797 4-4 4s-4-1.797-4-4 1.797-4 4-4 4 1.797 4 4zM21 10c0 3.313-2.688 6-6 6s-6-2.688-6-6 2.688-6 6-6 6 2.688 6 6zM30 13.516c0 1.734-1.469 2.484-3.031 2.484h-2.094c-1.047-1.25-2.516-1.953-4.141-2 0.812-1.172 1.266-2.578 1.266-4 0-0.344-0.031-0.688-0.078-1.031 0.672 0.234 1.359 0.359 2.078 0.359 2.109 0 3.734-1.328 4.062-1.328 1.984 0 1.937 4.25 1.937 5.516zM28 4c0 2.203-1.797 4-4 4s-4-1.797-4-4 1.797-4 4-4 4 1.797 4 4z"></path>
</symbol>



</defs>
</svg>
